<svg version="1.0" xmlns="http://www.w3.org/2000/svg"
width="640.000000pt" height="1280.000000pt" viewBox="0 0 640.000000 1280.000000"
 preserveAspectRatio="xMidYMid meet">
<metadata>
Created by potrace 1.15, written by Peter Selinger 2001-2017
</metadata>
<g transform="translate(0.000000,1280.000000) scale(0.100000,-0.100000)"
fill="black" stroke="none">
<path d="M3275 12781 c-116 -70 -177 -251 -156 -463 29 -283 30 -323 16 -434
-25 -183 -19 -242 28 -292 21 -23 22 -31 22 -245 0 -211 2 -227 28 -322 15
-56 32 -151 37 -215 34 -399 40 -482 34 -538 -7 -67 -13 -74 -30 -39 -6 12
-26 46 -45 76 -31 50 -34 62 -39 155 -5 109 -13 127 -82 193 -31 30 -93 63
-119 63 -20 0 0 -52 41 -105 50 -65 56 -91 35 -157 l-17 -54 36 -84 c41 -92
63 -127 112 -180 47 -51 75 -150 80 -285 l5 -110 -87 -55 c-134 -85 -268 -243
-314 -373 -13 -35 -30 -50 -30 -26 0 6 -25 37 -55 68 -45 47 -60 73 -82 136
-32 98 -68 135 -187 194 -49 25 -123 67 -165 95 -97 63 -157 86 -227 86 -50 0
-65 -6 -172 -69 -73 -43 -135 -88 -165 -120 -26 -28 -54 -51 -62 -51 -34 0
-84 -62 -112 -137 -18 -48 -45 -95 -76 -131 -54 -64 -67 -101 -67 -189 0 -92
7 -96 146 -88 113 7 113 7 139 -19 31 -31 29 -50 -6 -54 -42 -5 -53 -12 -42
-23 8 -8 22 -8 48 1 20 7 39 9 42 6 3 -3 -22 -33 -56 -66 -34 -34 -79 -93
-102 -131 -22 -38 -44 -69 -50 -69 -5 0 -55 -43 -110 -95 -55 -52 -104 -95
-109 -95 -13 0 -68 67 -91 111 -11 23 -25 67 -31 100 -9 53 -13 59 -34 59 -20
0 -24 5 -24 28 0 15 5 33 12 40 7 7 8 12 2 12 -18 0 -44 -35 -44 -58 0 -13 12
-28 30 -39 22 -13 30 -25 30 -45 0 -56 36 -132 87 -186 28 -29 59 -52 70 -52
12 0 36 19 57 45 21 25 46 45 57 45 28 0 94 -63 86 -83 -4 -10 -36 -25 -79
-37 -110 -32 -123 -39 -162 -77 -41 -41 -73 -118 -82 -198 -4 -30 -8 -55 -10
-55 -2 0 -14 5 -28 11 -37 17 -73 3 -132 -53 -101 -95 -147 -208 -146 -358 0
-52 5 -108 9 -125 7 -23 3 -47 -19 -110 -29 -83 -37 -189 -19 -237 l9 -23
-101 0 -101 0 -38 -55 c-50 -73 -68 -147 -75 -312 l-6 -136 -27 -6 c-18 -3
-31 -15 -40 -36 -26 -63 26 -150 91 -150 44 0 43 16 -2 29 -31 10 -44 20 -55
46 -16 38 -5 85 20 85 29 0 46 30 46 80 0 55 8 64 43 51 36 -14 39 -34 12 -96
-25 -55 -31 -98 -19 -129 10 -26 25 -18 18 9 -5 21 -3 25 15 25 15 0 21 6 21
24 0 13 9 43 19 67 21 47 18 66 -5 35 -12 -17 -14 -17 -14 -3 0 9 9 21 20 27
31 16 24 37 -15 44 -19 4 -43 18 -55 33 -25 32 -25 43 0 43 27 0 25 16 -2 24
-22 5 -22 6 -3 20 37 28 86 20 146 -25 65 -49 89 -63 89 -51 0 5 -10 14 -23
19 -13 6 -45 29 -71 52 -45 39 -51 41 -112 41 l-64 0 30 82 c17 45 42 95 57
110 55 57 157 61 230 9 63 -45 68 -46 39 -8 -33 43 -56 114 -56 174 0 48 18
133 29 133 3 0 25 -22 49 -50 69 -80 89 -82 37 -4 -58 88 -83 155 -91 251 -5
63 -3 86 11 118 l17 40 13 -45 c42 -151 91 -193 279 -239 49 -12 101 -28 116
-36 43 -22 86 -78 105 -137 25 -76 51 -124 77 -142 35 -25 43 -19 15 10 -23
23 -67 118 -67 145 0 5 -11 32 -25 59 -33 65 -100 104 -203 121 -57 9 -77 17
-88 34 -10 15 -22 21 -33 18 -25 -6 -77 22 -98 53 -9 15 -25 49 -34 76 l-17
50 29 56 c16 30 27 57 24 60 -6 7 -5 8 -33 -50 -26 -58 -42 -61 -42 -10 0 90
58 205 120 237 68 35 79 36 96 9 15 -23 15 -26 0 -43 -18 -20 -22 -41 -4 -23
16 16 38 15 38 -1 0 -16 73 -165 94 -190 12 -15 18 -16 35 -8 34 19 41 45 41
154 0 90 3 108 21 131 11 14 16 26 10 26 -22 0 -10 21 22 40 58 36 199 23 252
-23 l25 -22 -25 -200 c-36 -280 -41 -398 -21 -514 28 -158 106 -295 191 -335
19 -9 80 -28 136 -42 62 -15 114 -34 134 -49 26 -20 73 -34 76 -22 0 1 4 56 8
122 5 80 13 131 24 152 20 38 53 59 70 45 29 -24 97 -11 97 19 0 12 7 19 20
19 17 0 20 7 20 44 0 25 5 48 10 51 6 4 10 -11 10 -36 l0 -43 29 28 c16 16 34
26 39 22 5 -3 12 17 16 45 7 52 24 105 31 98 2 -3 -1 -24 -6 -49 -5 -24 -8
-53 -6 -64 3 -18 6 -15 19 14 9 19 19 58 23 85 7 48 23 91 30 83 3 -2 -2 -28
-10 -58 -8 -30 -15 -66 -15 -80 1 -23 1 -24 12 -6 6 11 19 49 28 86 9 37 22
75 28 86 19 33 14 -5 -14 -91 -20 -62 -26 -108 -30 -215 -3 -74 -10 -150 -16
-167 -11 -38 -42 -63 -77 -63 -40 0 -110 -39 -126 -71 -21 -39 -19 -82 5 -112
11 -14 63 -46 115 -72 70 -34 99 -54 110 -76 15 -27 14 -29 -5 -29 -11 0 -20
-4 -20 -10 0 -16 47 -12 65 6 14 15 14 19 -3 48 -13 23 -42 43 -109 76 -116
57 -133 73 -133 120 0 45 18 62 83 80 27 7 67 28 89 47 22 18 41 33 43 33 1 0
15 -7 31 -15 21 -11 47 -13 101 -8 83 7 103 -3 103 -48 0 -36 -13 -37 -28 -4
-14 30 -64 34 -101 9 -22 -16 -23 -22 -17 -78 12 -116 18 -141 37 -156 13 -10
31 -66 59 -183 22 -93 40 -171 40 -174 0 -4 -9 2 -20 12 -40 36 -158 29 -121
-8 15 -15 14 -82 -4 -168 -29 -142 7 -224 146 -326 l89 -66 0 -47 c0 -52 -7
-65 -26 -49 -7 6 -20 9 -29 7 -13 -2 -10 -14 16 -68 20 -42 29 -74 25 -91 -3
-16 8 -56 30 -110 34 -81 57 -209 38 -209 -5 0 -29 64 -53 143 -23 78 -65 187
-91 242 -41 85 -58 108 -113 157 -104 92 -134 175 -157 428 -16 184 -29 256
-62 342 -34 89 -78 155 -113 168 -14 5 -69 9 -122 8 -87 -2 -109 2 -192 30
-241 83 -350 172 -445 362 -32 63 -59 117 -61 119 -2 2 -2 -14 1 -35 10 -71
70 -178 144 -257 77 -82 130 -114 320 -193 108 -45 122 -48 228 -54 106 -5
115 -7 133 -30 10 -14 19 -30 19 -36 0 -7 13 -26 28 -42 44 -47 72 -185 92
-457 6 -82 14 -161 17 -175 13 -55 49 -106 143 -204 103 -108 136 -160 184
-296 18 -50 25 -85 21 -105 -3 -16 -6 -46 -6 -65 0 -32 -1 -33 -9 -10 -4 14
-20 67 -35 119 -47 170 -136 331 -235 426 -23 22 -48 52 -56 67 -23 44 -42
144 -54 278 -22 258 -41 329 -94 348 -44 16 -46 16 -46 -14 0 -20 -9 -29 -47
-46 -43 -19 -67 -22 -243 -22 l-195 -1 -73 -32 c-97 -42 -253 -147 -380 -256
l-105 -90 5 139 c11 277 67 398 203 435 34 10 55 8 131 -12 91 -22 92 -23 189
-5 70 12 119 15 179 10 57 -4 85 -3 90 4 15 25 -111 27 -322 6 -50 -5 -79 -2
-138 16 -65 19 -82 20 -121 11 -64 -17 -86 -34 -155 -122 -50 -66 -71 -84
-125 -111 -83 -41 -160 -45 -195 -11 -20 21 -21 23 -5 41 17 19 23 42 10 42
-3 0 -15 -8 -25 -17 -17 -15 -20 -15 -28 -3 -12 19 -12 54 0 108 9 37 8 47 -9
68 -10 13 -22 41 -26 61 -3 21 -20 55 -36 75 -34 43 -37 75 -8 112 32 41 49
35 37 -14 -15 -57 1 -74 63 -68 63 6 79 -4 79 -51 0 -25 7 -44 20 -56 13 -12
20 -31 20 -53 0 -28 -9 -44 -49 -83 -50 -51 -48 -62 5 -30 21 13 38 36 49 65
15 40 16 54 5 108 -6 35 -18 75 -26 90 -13 24 -20 27 -77 30 -59 3 -62 4 -65
30 -2 18 6 37 27 61 66 74 243 96 356 43 53 -24 73 -28 173 -30 62 -1 115 1
117 5 12 18 -58 31 -129 24 -68 -6 -79 -4 -147 25 -44 19 -92 32 -119 32 -37
1 -55 9 -100 43 -70 53 -81 59 -75 43 3 -7 21 -24 40 -38 52 -38 46 -53 -17
-45 -48 7 -51 6 -39 -9 22 -27 -13 -31 -54 -7 -50 29 -56 26 -17 -8 l33 -28
-46 -17 c-25 -10 -61 -33 -80 -51 -46 -43 -48 -91 -4 -155 45 -67 69 -116 69
-143 0 -21 -7 -25 -52 -34 l-53 -10 54 -2 c64 -1 60 -11 -12 -28 l-52 -12 55
4 c48 4 53 2 37 -10 -10 -7 -44 -16 -76 -20 -31 -4 -64 -11 -72 -17 -10 -7 -2
-8 26 -4 112 17 138 19 131 8 -4 -6 -23 -14 -44 -18 -20 -4 -44 -10 -52 -15
-21 -12 31 -12 63 0 46 18 36 -1 -14 -27 -45 -24 -49 -28 -33 -39 17 -12 17
-14 -2 -28 -32 -25 -184 -100 -280 -140 -115 -46 -123 -59 -93 -148 12 -36 19
-76 16 -97 -2 -19 3 -120 11 -225 l16 -190 43 -54 c24 -30 55 -74 70 -98 23
-40 25 -51 19 -107 -5 -53 -3 -67 12 -86 14 -17 24 -21 38 -16 19 7 19 8 0 21
-15 11 -19 28 -20 78 -1 55 -6 72 -40 126 -23 38 -41 81 -43 105 -12 102 51
263 115 295 21 10 57 40 81 67 41 45 44 47 57 29 15 -20 17 -34 32 -168 10
-98 27 -127 73 -127 45 0 61 36 71 159 12 141 42 286 85 396 47 122 50 136 18
91 -68 -96 -115 -263 -124 -444 -7 -125 -9 -135 -33 -159 l-26 -26 -17 33
c-11 21 -19 68 -23 132 l-5 99 -48 61 c-44 54 -49 66 -49 110 0 85 35 129 140
176 36 16 94 37 130 47 56 15 72 25 115 71 28 30 59 54 68 54 12 0 15 -4 11
-12 -4 -7 -9 -84 -9 -173 -2 -197 -12 -225 -131 -407 -46 -71 -80 -128 -75
-128 21 0 89 83 140 172 47 79 76 114 180 212 141 134 235 204 339 253 110 51
175 62 350 55 l150 -5 71 37 c38 20 77 36 85 36 20 0 41 -104 62 -295 26 -252
51 -336 117 -387 116 -91 253 -375 292 -605 l7 -43 -70 0 c-52 0 -73 4 -83 16
-8 9 -42 34 -76 56 -35 22 -63 43 -63 48 0 6 -67 42 -202 107 -9 5 -96 -74
-110 -100 -9 -18 -7 -19 40 -12 49 7 50 6 112 -49 35 -31 74 -59 88 -63 14 -3
41 -22 61 -42 20 -20 62 -49 93 -66 32 -16 58 -34 58 -40 0 -5 5 -27 11 -48 9
-33 17 -41 72 -66 34 -16 76 -31 93 -35 40 -9 68 -58 93 -167 25 -107 66 -377
82 -540 11 -116 11 -130 -5 -164 -15 -32 -17 -53 -11 -145 5 -76 4 -114 -5
-130 l-12 -22 -26 32 c-43 50 -90 43 -216 -34 -69 -42 -82 -43 -112 -15 -30
28 -44 17 -44 -36 0 -69 16 -79 120 -71 48 4 98 4 113 1 27 -7 34 -25 58 -164
6 -36 21 -86 35 -113 20 -40 24 -62 24 -145 1 -106 3 -111 62 -156 44 -33 69
-100 88 -244 12 -87 10 -326 -3 -339 -13 -13 -46 19 -75 73 -49 90 -74 113
-122 113 -20 0 -21 -4 -15 -32 4 -18 10 -73 13 -123 8 -97 22 -132 70 -178 25
-24 30 -36 30 -76 0 -52 13 -83 72 -167 22 -32 44 -73 50 -93 6 -22 7 -162 3
-375 -5 -290 -4 -338 8 -334 11 4 16 60 22 304 9 322 26 421 28 163 1 -115 3
-142 9 -106 10 60 20 72 20 26 0 -41 23 -77 57 -90 37 -14 39 -5 7 36 -35 46
-36 100 -6 201 32 103 29 153 -8 189 -16 16 -30 34 -30 40 0 7 14 29 30 50 17
21 30 49 30 62 0 35 -22 24 -36 -16 -6 -19 -19 -38 -30 -43 -10 -6 -31 -24
-46 -40 l-27 -31 -41 64 c-41 64 -74 155 -68 187 3 13 7 11 21 -13 l16 -30 1
38 c0 46 15 41 24 -8 9 -44 26 -55 26 -16 0 44 18 39 22 -6 3 -39 24 -56 30
-26 4 14 9 9 23 -19 10 -21 22 -38 27 -38 16 0 7 38 -17 71 -81 112 -80 109
-83 188 -2 43 5 144 17 231 12 85 24 174 27 198 4 23 10 42 15 42 5 0 9 10 9
23 0 16 3 18 9 8 5 -7 11 -9 13 -5 8 14 -4 244 -12 244 -5 0 -13 -12 -18 -27
l-10 -28 -2 30 c0 17 -8 48 -16 70 -8 22 -24 80 -36 129 -22 99 -47 161 -102
250 -46 76 -46 107 -1 170 38 54 45 102 20 146 -27 47 -19 95 23 142 20 22 55
49 77 59 37 17 40 17 47 1 15 -39 6 -89 -33 -176 -34 -76 -40 -98 -37 -138 4
-42 3 -47 -16 -50 -30 -4 -24 -36 24 -135 36 -74 77 -123 102 -123 13 0 0 60
-43 198 -44 138 -48 179 -20 213 25 31 32 23 21 -26 -20 -84 -13 -130 29 -195
32 -50 41 -75 51 -146 13 -89 8 -136 -23 -219 -17 -44 -15 -54 7 -36 8 7 17 8
20 3 14 -23 28 -488 22 -739 -5 -183 -3 -273 3 -273 6 0 13 10 15 23 10 46 13
687 5 827 -5 80 -13 222 -17 316 l-7 171 -49 97 c-40 81 -47 104 -43 134 4 19
13 42 20 50 12 11 15 3 19 -58 7 -96 22 -108 37 -31 19 98 38 153 73 211 19
30 42 83 52 117 16 54 17 70 7 119 -18 90 -14 147 11 179 39 50 125 70 177 41
l24 -14 -21 -6 c-39 -13 -45 -41 -27 -118 11 -41 15 -88 12 -115 -4 -40 -12
-53 -56 -94 -28 -26 -51 -49 -51 -51 0 -1 -7 -49 -14 -106 l-14 -104 -55 -49
c-50 -44 -97 -116 -97 -148 0 -23 21 1 49 58 18 35 39 62 55 69 40 18 63 66
92 189 21 93 30 115 51 128 14 9 34 37 45 62 19 42 22 97 15 227 -2 26 3 31
31 39 17 6 32 16 32 23 0 23 -62 48 -120 48 -66 0 -124 -28 -159 -80 -22 -32
-23 -39 -15 -112 16 -147 12 -181 -30 -255 -20 -37 -44 -90 -52 -117 -8 -28
-18 -50 -23 -50 -5 0 -11 30 -15 66 -4 36 -15 116 -26 177 -50 285 -78 637
-60 738 15 81 22 99 84 204 30 50 70 120 90 157 29 53 49 76 94 107 31 21 105
86 163 143 169 168 187 200 115 213 -90 17 -189 -71 -217 -192 -10 -47 5 -41
25 10 10 23 24 56 31 74 25 57 118 108 153 85 36 -24 -86 -165 -176 -205 -58
-26 -168 -54 -177 -45 -6 6 57 402 91 573 75 376 169 633 304 832 56 82 123
163 136 163 3 0 32 -20 64 -45 62 -47 173 -105 202 -105 15 0 17 -7 11 -45 -8
-61 10 -84 112 -150 46 -30 89 -63 95 -74 16 -32 12 -75 -15 -135 -14 -31 -25
-63 -25 -71 0 -8 -23 -32 -50 -52 -189 -141 -199 -157 -230 -359 -23 -151 -33
-183 -72 -241 -49 -73 -52 -88 -17 -123 17 -16 34 -29 37 -27 4 2 52 29 107
60 136 76 171 88 310 98 66 4 132 14 147 20 69 29 124 184 136 386 l7 118 39
-73 c43 -80 90 -124 180 -166 258 -121 274 -131 327 -218 25 -42 33 -48 62
-48 20 0 56 -14 93 -36 32 -19 71 -38 86 -41 32 -6 126 29 146 55 14 19 15
101 2 191 -8 55 -6 70 13 115 21 48 22 64 20 309 -2 313 -8 339 -88 427 -56
61 -70 88 -37 75 9 -4 35 -11 57 -14 51 -8 370 -5 384 3 11 7 7 47 -11 105 -6
18 -28 51 -49 72 l-38 38 16 38 c8 21 26 88 39 149 13 61 27 122 32 135 5 13
7 58 4 100 -4 75 -5 78 -46 117 -50 50 -120 86 -209 109 -44 12 -69 23 -73 35
-16 50 -113 101 -247 128 -51 10 -114 30 -141 44 -88 46 -230 32 -381 -38 -38
-18 -90 -48 -115 -67 -79 -61 -124 -89 -143 -89 -15 0 -12 8 18 43 20 23 41
60 47 83 9 33 19 45 57 65 61 32 104 94 104 150 0 38 -5 48 -42 80 -50 45
-147 85 -244 101 -58 10 -77 18 -96 41 -47 55 -161 97 -268 97 -113 0 -220
-58 -206 -111 3 -12 29 -46 58 -77 28 -32 64 -84 79 -116 15 -33 51 -85 80
-116 41 -43 56 -67 66 -109 14 -60 9 -196 -10 -248 l-12 -33 -32 25 c-63 48
-176 63 -442 57 l-122 -2 -17 -35 c-20 -44 -15 -70 36 -180 21 -45 39 -92 39
-103 0 -11 7 -25 16 -33 25 -21 44 -66 60 -141 l15 -70 -40 -43 c-142 -154
-244 -361 -327 -664 -19 -69 -73 -306 -120 -525 -87 -405 -113 -499 -155 -561
l-24 -35 -7 68 c-3 37 -11 209 -18 382 -6 173 -15 362 -19 420 l-8 105 32 40
c74 91 103 200 71 263 -16 30 -15 34 9 94 43 105 85 166 135 195 76 44 124 88
153 142 16 28 27 61 25 74 -3 20 -9 16 -53 -33 -92 -101 -109 -114 -165 -127
-75 -18 -104 -49 -170 -189 -32 -67 -63 -125 -70 -129 -10 -6 -11 33 -7 181 5
192 17 265 54 323 10 15 13 37 10 62 -5 35 -2 40 28 59 144 89 347 422 385
633 8 45 25 89 53 135 49 80 109 222 102 239 -8 23 -21 14 -48 -34 -42 -76
-56 -91 -67 -73 -5 8 -37 28 -72 45 -55 26 -63 34 -63 58 0 26 8 32 125 85
115 53 131 63 206 139 103 104 122 110 291 93 135 -13 183 -9 232 21 27 16 32
24 27 45 -4 16 1 38 16 64 l23 40 -43 40 c-52 48 -60 69 -78 194 -8 60 -22
111 -34 130 -33 53 -52 88 -48 91 9 9 280 -66 327 -89 29 -15 76 -52 104 -82
63 -68 203 -141 294 -154 32 -4 97 -24 145 -44 49 -20 104 -36 126 -36 21 0
76 -12 123 -26 60 -18 96 -23 124 -19 25 4 65 0 106 -11 36 -9 77 -14 92 -10
24 6 25 8 15 37 -8 23 -28 42 -71 68 -76 46 -115 81 -119 106 -3 18 2 20 47
17 28 -2 102 -21 165 -43 194 -68 270 -89 326 -89 65 0 68 11 23 82 -37 57
-100 113 -146 130 -23 9 -36 21 -44 45 -6 18 -14 33 -19 33 -4 0 -40 27 -79
60 -39 33 -83 63 -97 66 l-25 6 22 24 c12 13 84 55 160 94 146 76 254 161 279
220 12 28 10 36 -16 89 -28 56 -31 59 -74 66 -26 3 -101 -1 -175 -11 -173 -22
-271 -16 -410 26 -60 18 -111 34 -113 35 -2 2 4 15 14 30 12 19 19 54 22 112
4 68 9 90 24 105 53 53 81 194 71 358 -5 77 -3 102 11 128 9 17 20 58 24 92 8
54 7 60 -11 66 -34 11 -106 -6 -137 -33 -41 -34 -68 -84 -130 -235 -70 -171
-77 -178 -271 -266 -88 -40 -111 -62 -184 -170 -60 -91 -162 -151 -412 -247
-127 -48 -188 -84 -315 -184 l-76 -61 -7 52 c-10 71 -29 112 -75 162 -67 73
-220 125 -369 126 l-54 0 7 81 c4 44 23 156 42 247 47 223 64 320 64 359 0 22
6 36 19 43 40 21 61 74 81 206 23 153 44 220 115 374 85 182 97 274 70 555
-10 105 -15 236 -13 315 l3 134 -25 13 c-14 7 -44 13 -68 13 l-44 0 7 65 c5
41 0 136 -11 257 l-19 191 -33 14 c-19 8 -57 13 -85 11 l-52 -3 -26 -74 c-14
-41 -36 -86 -49 -100 l-24 -26 -12 87 c-15 101 -46 180 -82 208 -31 25 -49 25
-87 1z m39 -38 c-4 -16 -11 -39 -16 -53 -5 -13 -9 -99 -9 -191 1 -109 -6 -233
-21 -360 -12 -111 -22 -262 -22 -354 l-1 -160 -28 1 c-33 1 -46 12 -28 23 16
11 26 197 21 416 -6 287 -5 419 4 453 7 32 7 34 -14 27 -20 -6 -21 -4 -14 32
10 58 42 124 76 161 40 40 61 42 52 5z m77 -40 c5 -15 7 -39 4 -53 -4 -14 -7
-97 -6 -185 1 -162 -9 -277 -35 -375 -8 -30 -19 -149 -25 -264 -5 -116 -11
-212 -13 -213 -2 -2 -11 15 -21 39 -29 70 -31 242 -5 433 12 88 26 259 30 380
5 121 12 230 16 243 9 31 42 28 55 -5z m209 -77 c0 -10 -16 -54 -36 -97 -31
-69 -36 -94 -45 -201 -5 -68 -16 -168 -25 -223 -9 -55 -18 -170 -21 -255 -5
-122 -8 -149 -16 -130 -7 14 -11 98 -12 197 0 94 -3 169 -7 166 -5 -2 -8 -24
-8 -49 0 -28 -4 -43 -10 -39 -16 10 -12 64 9 133 11 35 22 105 26 155 10 160
14 176 49 215 18 20 39 55 45 77 24 79 33 97 42 83 5 -7 9 -21 9 -32z m59
-171 c1 -149 -23 -422 -49 -560 -8 -41 -8 -34 -4 43 2 51 7 100 11 110 4 12 3
14 -6 6 -6 -5 -18 -77 -27 -160 -8 -82 -17 -151 -20 -153 -2 -2 -4 18 -5 45
-1 76 -16 24 -23 -81 -4 -50 -10 -112 -13 -140 l-7 -50 -7 45 c-4 25 -8 134
-8 242 -1 268 30 511 90 692 16 49 29 101 29 115 0 15 6 33 13 40 20 20 25
-18 26 -194z m65 -150 c0 -60 -4 -123 -9 -140 l-8 -30 -8 40 c-5 22 -5 96 -2
164 5 100 8 120 17 100 5 -13 10 -73 10 -134z m-298 6 c-6 -74 -50 -282 -67
-311 -15 -27 -10 7 21 142 20 87 30 158 31 216 1 71 3 81 10 57 6 -16 8 -64 5
-104z m312 -236 c-14 -31 -23 -25 -14 10 4 14 11 23 16 20 6 -3 5 -16 -2 -30z
m73 -12 c8 -21 7 -59 -5 -148 -11 -87 -14 -158 -9 -258 4 -91 3 -141 -4 -145
-6 -4 -18 -45 -27 -92 -10 -47 -42 -174 -71 -283 -63 -228 -83 -336 -87 -459
-2 -48 -6 -88 -9 -88 -3 0 -14 9 -24 20 -20 22 -19 47 14 260 15 93 24 219 30
405 10 294 7 283 85 466 29 69 38 109 47 195 11 113 22 154 39 154 6 0 15 -12
21 -27z m-100 -162 c-7 -55 -27 -122 -62 -208 l-51 -128 -9 -285 c-9 -289 -23
-468 -38 -483 -10 -10 -26 332 -24 525 1 169 9 204 84 370 57 125 89 225 89
277 0 26 3 32 11 24 8 -8 8 -33 0 -92z m-324 -77 c2 -32 7 -122 13 -199 9
-117 8 -155 -5 -229 -24 -138 -23 -149 20 -211 38 -55 38 -56 31 -128 -10
-107 -24 -147 -64 -186 l-36 -36 -12 100 c-7 55 -24 161 -39 235 -21 107 -26
155 -23 232 3 91 6 100 36 140 59 78 64 97 56 230 -6 101 -5 120 7 116 10 -3
15 -24 16 -64z m467 -304 c1 -196 -1 -229 -17 -260 -13 -27 -16 -29 -12 -10
19 93 12 94 -19 5 -37 -108 -44 -113 -22 -13 26 110 46 299 47 443 2 115 4
133 12 100 5 -22 10 -141 11 -265z m-387 68 c-3 -7 -5 -2 -5 12 0 14 2 19 5
13 2 -7 2 -19 0 -25z m-214 -55 c-15 -73 -6 -284 20 -453 14 -91 29 -207 33
-259 6 -77 10 -94 24 -98 15 -4 17 -10 9 -36 -6 -22 -4 -80 8 -179 14 -122 14
-156 4 -202 -25 -110 -29 -84 -51 299 -14 248 -26 345 -60 522 -19 98 -30 184
-30 240 0 104 18 203 37 203 11 0 12 -9 6 -37z m217 -38 c0 -14 -4 -25 -10
-25 -5 0 -10 11 -10 25 0 14 5 25 10 25 6 0 10 -11 10 -25z m17 -181 c-5 -88
-19 -125 -32 -84 -9 29 17 170 32 170 3 0 3 -39 0 -86z m-70 -66 c-3 -7 -5 -2
-5 12 0 14 2 19 5 13 2 -7 2 -19 0 -25z m368 -125 c-9 -15 -13 -19 -10 -8 4
11 10 29 13 40 3 11 7 14 9 8 3 -7 -3 -24 -12 -40z m-290 -218 c-7 -148 -23
-257 -76 -516 -33 -164 -39 -207 -29 -222 6 -10 10 -37 8 -60 -2 -39 12 -60
27 -38 3 6 10 11 15 11 5 0 -1 -21 -15 -47 -27 -55 -54 -144 -63 -210 -7 -44
-32 -76 -48 -60 -4 3 1 30 10 59 l16 53 -35 73 c-42 85 -46 144 -6 80 13 -21
27 -38 31 -38 19 0 17 32 -7 76 -24 45 -25 49 -9 81 9 18 16 42 16 53 0 12 8
20 23 22 20 3 23 10 30 88 4 47 21 168 37 270 36 219 60 410 61 500 l1 65 10
-60 c5 -33 7 -114 3 -180z m255 166 c0 -5 -18 -80 -40 -167 -22 -87 -40 -178
-40 -202 0 -29 -4 -41 -11 -36 -21 13 0 138 62 377 9 33 29 52 29 28z m-364
-278 c-30 -49 -36 -53 -36 -32 0 29 61 121 68 101 2 -6 -12 -38 -32 -69z m24
-86 c-1 -46 -24 -139 -33 -131 -11 12 -8 121 4 148 15 32 29 24 29 -17z m122
-54 c-2 -40 -8 -70 -13 -67 -10 6 -12 62 -2 117 10 62 20 28 15 -50z m-481 -9
c12 -14 11 -16 -5 -13 -11 2 -21 10 -24 17 -5 17 13 15 29 -4z m2467 -26 c-6
-16 -36 -34 -44 -25 -9 9 15 37 33 37 8 0 13 -5 11 -12z m-102 -21 c-9 -12
-22 -55 -31 -95 -15 -73 -36 -125 -55 -137 -6 -4 -35 -55 -65 -113 -76 -152
-109 -182 -198 -182 -54 0 -117 -17 -141 -38 -10 -10 -31 -46 -47 -81 -24 -53
-50 -84 -152 -182 -67 -65 -140 -127 -163 -138 -22 -11 -98 -34 -170 -51 -158
-39 -225 -74 -319 -169 -74 -75 -95 -86 -95 -47 0 33 122 162 205 216 36 23
141 74 233 112 236 98 277 123 369 225 144 160 152 167 259 208 128 49 177 95
223 210 72 181 84 205 117 244 39 45 53 54 30 18z m-1901 -66 c7 -22 -7 -62
-29 -80 -14 -12 -16 -10 -16 11 0 32 19 88 30 88 5 0 11 -8 15 -19z m25 -246
c-16 -63 -30 -123 -30 -134 0 -12 -4 -21 -10 -21 -11 0 -6 30 21 145 11 44 22
116 25 160 7 108 18 126 22 37 2 -56 -4 -98 -28 -187z m1923 213 c-12 -35 -13
-58 -4 -129 23 -181 16 -224 -54 -321 -27 -37 -30 -50 -35 -139 -7 -131 -18
-144 -133 -152 -73 -5 -197 -32 -251 -53 -29 -11 -11 13 28 38 23 15 25 19 9
15 -20 -4 -20 -3 -8 27 7 17 19 31 27 32 33 3 38 5 38 19 0 31 -35 13 -106
-57 -69 -68 -72 -73 -53 -84 20 -10 20 -12 -14 -32 -61 -36 -185 -71 -367
-103 -96 -17 -177 -33 -180 -36 -3 -3 45 -3 105 0 130 6 202 25 425 108 285
105 390 118 616 74 193 -39 268 -42 401 -16 79 15 118 19 136 12 45 -18 38
-28 -26 -35 -34 -4 -120 -22 -192 -41 -71 -19 -204 -43 -295 -55 -197 -24
-230 -30 -425 -81 -287 -75 -325 -81 -620 -89 -267 -7 -271 -7 -330 -34 -33
-16 -55 -30 -48 -33 6 -2 30 5 52 16 30 16 59 21 113 21 118 0 483 27 608 45
155 22 233 39 310 68 43 16 104 28 180 35 63 6 165 22 225 36 139 31 216 42
195 27 -24 -18 -137 -48 -260 -71 -63 -12 -205 -45 -315 -75 -320 -87 -379
-97 -560 -101 -364 -7 -409 -10 -466 -28 -54 -17 -57 -17 -114 2 l-60 20 80
79 c101 98 178 141 277 153 115 13 208 53 293 125 28 23 72 52 99 64 26 11 94
54 150 94 55 41 146 104 201 140 55 37 122 88 147 114 90 92 148 218 163 356
6 52 24 87 45 87 4 0 1 -19 -7 -42z m-2388 -78 c3 -5 1 -10 -4 -10 -6 0 -11 5
-11 10 0 6 2 10 4 10 3 0 8 -4 11 -10z m435 -12 c0 -12 -6 -24 -53 -108 l-19
-35 6 42 c8 54 36 113 53 113 7 0 13 -6 13 -12z m-367 -28 c3 -13 0 -20 -9
-20 -8 0 -14 2 -14 4 0 2 -3 11 -6 20 -4 10 -1 16 9 16 8 0 17 -9 20 -20z
m2227 -78 c-17 -69 -51 -122 -123 -188 -67 -62 -247 -190 -247 -175 0 20 105
104 163 130 37 17 76 44 96 67 33 37 94 157 108 212 3 15 8 21 11 14 2 -7 -1
-34 -8 -60z m-2261 10 c1 -7 -3 -10 -9 -7 -5 3 -10 18 -9 33 0 24 1 25 9 7 5
-11 9 -26 9 -33z m362 -118 c-14 -60 -31 -81 -31 -37 0 32 33 118 39 101 2 -6
-2 -35 -8 -64z m-286 26 c20 -39 5 -39 -17 0 -9 17 -13 30 -8 30 5 0 16 -13
25 -30z m55 -101 c0 -11 -4 -18 -10 -14 -5 3 -7 12 -3 20 7 21 13 19 13 -6z
m250 -121 c-7 -19 -9 -15 -9 22 0 37 2 41 9 23 6 -14 6 -32 0 -45z m-47 -80
c-6 -100 -10 -116 -35 -129 -21 -11 -21 -10 -15 42 8 66 35 159 46 159 5 0 6
-33 4 -72z m-1195 -109 c24 -10 65 -36 92 -57 26 -21 94 -62 149 -92 57 -30
110 -65 121 -80 11 -16 33 -64 50 -107 25 -66 44 -94 109 -165 l78 -85 7 -99
c10 -148 35 -289 66 -381 15 -46 26 -83 25 -83 -1 0 -18 25 -36 55 -18 30 -37
55 -41 55 -12 0 -10 -13 8 -38 25 -37 8 -38 -26 -2 -37 39 -40 24 -4 -19 l26
-31 -23 0 c-13 0 -35 15 -54 38 -18 20 -36 34 -40 30 -4 -3 5 -17 19 -29 34
-30 33 -40 -3 -28 -16 6 -48 33 -71 60 -39 46 -41 51 -28 72 34 52 27 107 -12
107 -17 0 -20 7 -20 54 0 95 -26 127 -73 92 -18 -14 -20 -44 -17 -185 0 -25
-7 -67 -17 -95 -9 -28 -15 -66 -14 -84 4 -47 -22 -82 -61 -82 -17 0 -40 8 -50
17 -18 16 -18 17 4 41 17 17 23 36 24 70 1 73 21 191 35 208 10 12 4 23 -39
64 -51 49 -92 77 -92 63 0 -4 16 -18 36 -31 38 -25 40 -45 5 -50 -21 -3 -22
-7 -15 -40 4 -20 8 -57 9 -82 0 -39 -3 -45 -22 -48 -21 -3 -23 1 -23 37 0 49
-18 54 -71 18 -50 -33 -68 -90 -68 -215 l-1 -103 -47 7 c-73 10 -154 41 -184
70 -39 37 -72 111 -104 229 -31 117 -64 185 -102 215 -29 23 -23 23 -174 4
-50 -6 -59 -4 -79 16 -20 20 -21 29 -15 74 3 28 21 78 39 111 143 262 165 295
191 295 6 0 27 16 46 36 82 86 230 177 313 194 53 10 120 3 174 -21z m2592 7
c0 -2 -7 -7 -16 -10 -8 -3 -12 -2 -9 4 6 10 25 14 25 6z m-1104 -62 c142 -30
207 -103 207 -234 0 -49 -5 -77 -19 -101 -27 -46 -40 -46 -36 -1 10 100 -94
212 -197 212 -32 0 -44 -6 -65 -31 -30 -35 -33 -70 -14 -180 16 -97 9 -107
-105 -162 -146 -71 -232 -159 -318 -321 -34 -64 -38 -67 -48 -47 -7 11 -18 21
-26 21 -11 0 -15 12 -15 40 0 23 -5 40 -11 40 -9 0 -10 -29 -6 -102 3 -62 2
-96 -4 -87 -5 8 -9 68 -9 134 0 90 -3 115 -11 102 -20 -35 -22 -133 -5 -237
10 -56 15 -104 13 -107 -11 -11 -30 111 -35 225 -2 68 -7 120 -11 117 -3 -4
-8 -50 -11 -103 -4 -72 -7 -88 -12 -62 -4 19 -11 60 -17 90 -9 47 -9 38 -6
-65 3 -93 2 -116 -7 -100 -6 11 -14 55 -16 97 -3 43 -8 78 -12 78 -15 0 -20
-66 -10 -120 6 -29 8 -55 6 -57 -14 -14 -30 57 -38 166 -5 69 -11 153 -14 185
-20 206 122 429 346 545 163 85 316 104 506 65z m2287 -111 c-7 -2 -19 -2 -25
0 -7 3 -2 5 12 5 14 0 19 -2 13 -5z m95 -31 l23 -7 -27 -40 c-23 -35 -59 -69
-151 -139 -13 -10 -55 -31 -93 -47 -38 -15 -105 -53 -150 -83 -77 -53 -84 -56
-143 -56 -113 0 -257 -13 -257 -23 0 -5 23 -7 58 -3 48 6 54 5 37 -6 -13 -8
-55 -13 -118 -13 -91 0 -119 -7 -79 -19 52 -16 -172 10 -348 41 -192 34 -221
36 -443 39 -131 1 -241 4 -244 7 -3 3 15 16 38 28 42 21 50 21 179 13 254 -16
418 -11 605 20 193 31 315 58 395 86 56 19 129 33 234 45 63 7 86 14 216 69
82 34 92 47 22 26 -28 -8 -32 -7 -22 5 32 39 203 75 268 57z m-2347 -35 c63
-41 97 -147 68 -211 -12 -25 -16 -26 -144 -42 l-50 -6 -3 121 c-3 110 -1 122
18 141 26 26 69 25 111 -3z m1979 -47 c0 -8 -27 -18 -105 -36 -52 -12 -17 10
43 27 31 9 58 17 60 18 1 0 2 -3 2 -9z m-1783 -62 c-3 -8 -6 -5 -6 6 -1 11 2
17 5 13 3 -3 4 -12 1 -19z m-14 -48 c-5 -19 -23 -39 -23 -25 0 9 20 45 24 45
2 0 2 -9 -1 -20z m1337 -5 c-27 -15 -73 -29 -130 -40 l-35 -6 30 18 c33 19
109 41 140 42 18 0 17 -1 -5 -14z m-251 -59 c-9 -9 -169 -33 -169 -25 0 4 19
12 43 17 43 10 134 15 126 8z m-989 -65 c79 -25 138 -61 184 -111 45 -50 69
-103 96 -213 27 -106 57 -182 87 -218 23 -27 23 -29 8 -60 -9 -17 -15 -42 -12
-56 3 -19 -2 -27 -26 -40 -31 -16 -89 -15 -272 3 -99 10 -136 -6 -227 -97 -88
-89 -153 -134 -248 -172 -133 -52 -310 -71 -432 -46 -151 32 -278 138 -278
233 0 37 31 49 112 44 37 -3 68 -4 68 -2 0 3 -5 13 -12 23 -12 20 0 55 99 299
88 217 216 338 428 401 146 44 307 49 425 12z m230 -67 c0 -2 -12 -4 -26 -4
-14 0 -23 4 -20 9 6 8 46 4 46 -5z m264 -14 c38 -14 45 -19 25 -19 -24 -1
-116 13 -169 25 -24 6 -24 7 -5 15 25 10 83 2 149 -21z m1036 10 c-8 -5 -28
-9 -45 -9 -26 0 -27 2 -10 9 11 5 31 9 45 9 20 1 22 -1 10 -9z m143 -24 c44
-16 77 -43 77 -63 0 -7 -7 -13 -15 -13 -36 0 -11 -19 38 -30 45 -9 55 -16 71
-45 11 -19 26 -37 36 -40 59 -19 170 -122 170 -158 0 -20 -109 3 -272 58 -157
53 -178 57 -330 70 -345 31 -405 45 -508 116 -31 22 -65 39 -75 40 -11 0 -36
7 -55 14 l-35 13 56 1 c35 1 110 -13 195 -35 111 -29 163 -37 259 -41 66 -2
117 -2 113 2 -3 4 -75 13 -160 20 -197 18 -253 37 -83 30 171 -8 371 -25 405
-35 17 -5 30 -5 30 0 0 5 -25 14 -55 21 -31 7 -58 16 -61 21 -7 11 93 10 134
-1 17 -5 32 -6 32 -1 0 11 -57 30 -94 30 l-31 1 24 19 c27 23 79 25 134 6z
m-1043 -47 c133 -31 169 -47 185 -85 10 -23 28 -40 64 -58 28 -15 53 -26 56
-26 16 0 -10 22 -48 42 -23 12 -36 23 -29 26 7 2 43 -14 80 -37 72 -43 129
-67 139 -57 3 3 -3 9 -13 13 -39 14 -247 147 -236 151 6 2 42 -15 79 -38 73
-44 183 -82 287 -101 64 -11 68 -13 117 -73 29 -33 56 -71 62 -84 6 -12 15
-21 21 -19 25 8 15 39 -28 85 -69 74 -62 81 44 50 39 -12 90 -54 90 -75 0 -8
27 -25 61 -40 41 -18 65 -35 75 -54 14 -29 14 -29 -11 -19 -15 6 -67 10 -116
10 -73 0 -101 5 -149 25 -41 17 -78 25 -120 25 -48 0 -80 8 -148 37 -48 20
-112 39 -143 43 -69 9 -126 37 -210 101 -136 105 -193 143 -247 166 l-57 24
55 -6 c30 -4 93 -15 140 -26z m687 25 c-3 -3 -12 -4 -19 -1 -8 3 -5 6 6 6 11
1 17 -2 13 -5z m-64 -11 c-7 -2 -21 -2 -30 0 -10 3 -4 5 12 5 17 0 24 -2 18
-5z m202 -13 c-3 -5 -23 -10 -43 -10 -28 0 -33 3 -22 10 20 13 73 13 65 0z
m-2906 -192 c0 -51 -4 -102 -9 -113 -6 -13 -9 20 -9 93 -1 68 3 112 9 112 6 0
10 -37 9 -92z m-174 -16 c-3 -8 -5 -25 -5 -38 0 -13 -4 -24 -9 -24 -10 0 -23
88 -14 103 8 14 35 -24 28 -41z m-619 -13 c4 -8 -1 -9 -16 -4 -20 6 -22 5 -17
-16 4 -13 12 -50 19 -81 12 -59 34 -82 26 -28 -3 17 -1 30 2 30 8 0 60 -112
60 -129 0 -6 -18 -11 -45 -11 -60 0 -96 -20 -172 -93 l-63 -60 -40 37 c-22 20
-45 36 -50 36 -6 0 -10 5 -10 10 0 18 23 10 52 -17 15 -15 28 -21 28 -14 0 6
-12 23 -27 36 -16 13 -25 26 -21 30 12 13 38 -4 56 -35 18 -32 32 -39 32 -17
0 8 -11 24 -25 37 -14 13 -25 32 -25 42 0 30 24 21 53 -22 11 -16 17 -19 17
-9 0 8 -7 24 -15 35 -16 22 -20 54 -5 54 5 0 17 -14 25 -30 9 -17 20 -28 26
-25 6 4 2 20 -11 39 -21 35 -26 66 -11 66 13 0 27 -21 41 -63 8 -26 16 -35 22
-29 6 6 3 26 -11 57 -22 50 -27 85 -12 85 14 0 29 -23 37 -55 11 -47 23 -65
39 -59 32 13 -2 163 -37 164 -17 1 39 50 57 50 8 0 17 -5 21 -11z m463 -130
c-17 -27 -34 -48 -36 -45 -12 12 10 78 35 108 26 31 27 31 30 10 2 -13 -10
-44 -29 -73z m391 84 c-1 -5 -7 -19 -15 -33 l-14 -25 -1 26 c0 14 3 29 7 32 9
9 23 9 23 0z m-926 -19 c9 -24 7 -28 -9 -14 -17 14 -20 30 -6 30 5 0 12 -7 15
-16z m633 -66 c4 -7 13 -28 19 -45 11 -32 11 -33 -17 -33 -23 0 -27 3 -22 18
6 16 5 16 -14 0 -11 -10 -27 -18 -36 -18 -28 0 -19 33 15 62 37 31 44 33 55
16z m203 -13 c0 -8 -4 -15 -10 -15 -5 0 -7 7 -4 15 4 8 8 15 10 15 2 0 4 -7 4
-15z m30 -43 c0 -5 -9 -17 -20 -27 -23 -21 -26 -14 -8 15 13 20 28 27 28 12z
m213 -77 c43 -13 90 -33 103 -46 28 -26 33 -50 5 -25 -10 9 -55 28 -99 41 -44
14 -91 34 -103 46 -21 18 -21 20 -4 14 11 -4 55 -18 98 -30z m-479 -8 c12 -34
-8 -103 -34 -117 -18 -10 -20 -7 -20 19 0 17 5 53 11 81 12 55 28 61 43 17z
m270 21 c-13 -24 -37 -48 -47 -48 -6 0 2 14 18 30 31 32 41 38 29 18z m-683
-33 c81 -46 144 -72 189 -80 47 -7 110 -33 110 -44 0 -3 -40 -19 -89 -34 l-89
-29 -53 24 c-50 21 -66 23 -212 21 -180 -2 -177 -6 -93 85 75 82 158 102 237
57z m756 -4 c22 -11 72 -23 116 -26 69 -7 98 -17 84 -31 -2 -3 -38 0 -78 7
-76 11 -151 38 -163 58 -10 15 -2 14 41 -8z m-52 -21 c3 -6 -1 -13 -10 -16
-19 -8 -30 0 -20 15 8 14 22 14 30 1z m-259 -88 c-12 -11 -18 7 -10 30 l8 23
4 -23 c2 -13 1 -26 -2 -30z m493 27 c17 -6 31 -15 31 -19 0 -5 -24 -1 -53 9
-43 15 -65 17 -113 10 -128 -19 -140 -19 -122 -9 46 28 189 32 257 9z m-404
-28 c3 -5 -5 -30 -17 -56 -18 -37 -20 -49 -11 -64 10 -17 2 -26 -70 -80 -97
-72 -127 -97 -127 -105 0 -3 45 28 100 69 117 87 199 134 293 170 97 36 103
31 19 -15 -123 -67 -271 -179 -347 -261 -16 -17 32 18 108 79 150 120 263 185
371 214 38 10 71 17 73 15 1 -2 -57 -33 -130 -69 -149 -75 -240 -145 -313
-240 -27 -35 -92 -116 -146 -180 -170 -206 -277 -388 -299 -513 -13 -76 -19
-95 -28 -95 -4 0 -4 30 0 68 24 222 120 454 247 594 19 21 28 36 19 32 -42
-16 -154 -184 -192 -289 -16 -43 -33 -75 -41 -75 -8 0 -14 -2 -14 -4 0 -9 -31
-173 -36 -189 -3 -10 -8 -17 -10 -15 -4 5 23 181 32 212 4 12 2 16 -5 12 -15
-10 -14 14 4 64 24 67 11 57 -23 -17 -29 -64 -56 -148 -65 -203 -2 -14 -5 -5
-5 20 -1 25 5 71 12 103 8 31 10 57 6 57 -5 0 -11 -6 -14 -12 -3 -7 -3 3 0 22
8 46 -8 30 -23 -23 l-13 -42 5 55 c4 39 3 51 -5 40 -5 -8 -10 -24 -10 -35 -1
-17 -3 -16 -12 5 -5 14 -8 51 -5 83 3 31 3 57 1 57 -2 0 -8 -19 -14 -42 -13
-53 -29 -92 -35 -86 -12 11 35 348 56 403 26 69 79 126 178 190 87 57 137 78
230 99 41 9 82 21 93 27 27 15 24 -17 -7 -57 -14 -18 -25 -44 -25 -58 0 -22 5
-26 29 -26 37 0 73 41 91 105 8 30 20 50 34 55 28 12 34 12 41 1z m150 -21
c-3 -5 -13 -10 -21 -10 -8 0 -14 -5 -14 -10 0 -11 42 -4 72 11 30 16 34 9 4
-7 -33 -18 -138 -56 -142 -51 -2 2 4 20 14 40 15 32 21 36 55 37 23 0 36 -4
32 -10z m200 0 c-3 -5 -13 -10 -21 -10 -8 0 -12 5 -9 10 3 6 13 10 21 10 8 0
12 -4 9 -10z m-862 -45 c26 -9 47 -20 47 -23 -1 -4 -37 -32 -81 -61 -76 -52
-141 -113 -151 -141 -3 -9 -15 -8 -53 5 -152 51 -331 9 -396 -93 -31 -49 -39
-41 -39 42 0 101 52 196 130 236 32 16 117 34 255 54 66 9 241 -2 288 -19z
m368 -58 c-30 -30 -38 -13 -10 21 17 21 25 25 27 14 2 -8 -5 -24 -17 -35z
m555 44 c-4 -5 3 -7 15 -4 18 5 20 3 14 -15 -9 -30 3 -46 21 -31 11 9 18 9 26
1 9 -9 8 -25 -2 -64 -8 -31 -14 -106 -14 -178 -1 -148 -10 -171 -105 -265 -50
-48 -61 -65 -61 -92 0 -29 -10 -40 -102 -112 -57 -44 -142 -99 -189 -123 -83
-42 -86 -45 -112 -103 -15 -33 -57 -96 -93 -139 l-67 -79 7 -103 c7 -98 3
-116 -20 -95 -5 4 -31 16 -57 26 -26 10 -50 22 -53 27 -3 5 6 28 20 53 14 24
26 52 27 62 0 16 1 16 9 -2 8 -19 9 -19 9 3 1 12 -8 31 -19 42 l-20 20 0 -20
c0 -40 -20 -19 -21 23 -1 23 -3 34 -6 25 -6 -26 -20 -22 -37 10 l-15 27 -1
-46 c0 -26 7 -66 15 -89 8 -23 15 -52 15 -63 0 -18 -5 -19 -55 -14 -151 15
-244 149 -270 383 l-7 62 32 -3 c27 -2 35 -9 50 -43 10 -22 27 -43 38 -46 15
-5 21 -19 26 -65 8 -66 43 -129 88 -155 46 -28 58 -10 58 90 0 68 -3 84 -15
84 -11 0 -15 12 -15 50 0 43 10 70 66 177 82 159 119 212 287 410 203 240 277
299 445 358 73 26 96 30 88 16z m1599 -72 c30 -11 76 -40 103 -65 32 -28 59
-44 75 -44 88 0 218 -54 276 -113 29 -31 33 -40 27 -69 -9 -48 -59 -104 -111
-124 -39 -14 -45 -21 -45 -46 0 -60 -24 -85 -139 -142 -107 -54 -161 -99 -161
-136 0 -9 -6 -23 -14 -29 -25 -21 -31 8 -31 154 -1 162 -10 190 -92 291 -28
34 -61 87 -73 118 -17 40 -34 63 -61 80 -41 28 -54 54 -45 91 16 64 166 81
291 34z m-1340 -104 c34 -13 89 -27 121 -30 64 -8 61 -5 122 -105 l22 -35 0
28 c0 17 5 27 14 27 8 0 25 19 38 42 32 59 50 59 105 -1 35 -39 53 -51 75 -51
l28 0 0 -89 c0 -206 -96 -469 -243 -663 -111 -148 -184 -189 -351 -196 -108
-5 -108 -5 -97 17 13 24 0 28 -19 6 -24 -29 -21 -7 12 71 l32 79 2 200 2 200
-13 -165 c-20 -248 -46 -344 -107 -395 -59 -50 -142 -42 -150 14 -6 40 4 47
72 56 30 4 66 14 78 22 32 20 62 89 62 144 0 65 -43 208 -94 311 l-44 87 75
48 c92 59 124 106 122 179 -1 43 -2 45 -9 19 -9 -37 -13 152 -4 207 l6 37 41
-21 c22 -11 68 -31 102 -43z m-1737 -237 c-4 -124 -9 -143 -37 -128 -45 23
-66 152 -35 211 16 31 53 53 68 39 4 -5 7 -59 4 -122z m2347 45 c-8 -19 -15
-37 -15 -39 0 -2 -4 -4 -10 -4 -15 0 -12 43 6 68 23 33 36 17 19 -25z m1683
-161 c49 -25 75 -32 120 -32 76 -1 130 -26 193 -94 33 -36 62 -57 82 -61 71
-14 168 -58 210 -95 44 -39 44 -40 51 -121 5 -53 4 -85 -3 -92 -20 -20 -89 12
-158 73 -38 33 -75 60 -84 60 -9 0 -37 -16 -63 -36 -45 -34 -48 -35 -95 -25
-44 9 -149 -4 -201 -25 -8 -3 -71 -10 -140 -15 -80 -5 -157 -17 -215 -34 -49
-14 -104 -25 -120 -25 -17 0 -73 -11 -125 -24 -52 -13 -113 -27 -135 -31 -50
-8 -129 9 -166 36 -24 17 -27 23 -19 50 15 52 37 80 138 177 68 66 90 91 72
87 -60 -17 139 154 240 205 93 48 149 60 255 57 90 -2 106 -6 163 -35z m-2618
-178 c0 -3 -9 -40 -19 -82 -29 -113 -44 -206 -45 -286 -1 -57 -4 -71 -17 -74
-20 -4 -29 35 -29 130 0 116 64 318 101 318 5 0 9 -3 9 -6z m1900 -14 c0 -40
-44 -113 -111 -185 -37 -41 -77 -92 -88 -114 -17 -32 -28 -41 -56 -47 -107
-20 -226 31 -400 170 -115 92 -121 96 -170 96 -43 1 -48 3 -33 13 12 10 68 13
210 13 l193 -1 48 -30 c27 -17 65 -40 85 -52 42 -25 104 -30 121 -9 6 7 18 36
26 63 14 47 19 52 73 76 72 32 102 34 102 7z m-2916 -27 c-10 -40 -14 -41 -14
-5 0 18 5 32 10 32 6 0 8 -11 4 -27z m49 -25 c-8 -46 -13 -48 -13 -5 0 21 4
37 10 37 5 0 7 -14 3 -32z m-33 -33 c-15 -41 -21 -26 -8 21 6 21 13 32 15 23
2 -8 -1 -28 -7 -44z m100 -26 c-5 -35 -10 -81 -10 -101 0 -21 -4 -38 -10 -38
-5 0 -10 6 -10 14 0 8 -4 16 -9 18 -9 3 10 104 28 152 18 45 23 25 11 -45z
m949 38 c60 -98 61 -265 1 -319 -61 -56 -84 -26 -83 112 0 81 21 203 39 232
10 15 23 7 43 -25z m1056 -29 c14 -6 25 -15 25 -20 0 -12 -14 -10 -28 4 -6 6
-14 9 -17 6 -3 -3 29 -37 71 -74 43 -38 116 -104 163 -147 113 -104 160 -131
227 -131 45 0 59 5 94 33 l42 33 -7 -108 c-5 -87 -3 -118 9 -153 22 -60 20
-103 -5 -130 -18 -20 -27 -21 -82 -15 -117 12 -165 30 -269 101 -55 37 -113
83 -129 100 -28 33 -49 88 -49 131 0 27 -14 56 -46 95 -13 16 -24 37 -24 47 0
10 -18 56 -40 101 -22 46 -40 91 -40 101 0 32 59 47 105 26z m-2089 -45 c-10
-10 -19 5 -10 18 6 11 8 11 12 0 2 -7 1 -15 -2 -18z m2254 -73 c128 -95 197
-129 296 -143 41 -5 74 -14 74 -19 0 -5 -11 -20 -25 -33 -45 -46 -131 -27
-240 52 -89 65 -244 223 -219 223 4 0 55 -36 114 -80z m1817 -25 c31 -25 77
-58 102 -72 25 -15 50 -32 54 -38 16 -20 1 -149 -22 -203 -27 -60 -36 -60 -33
1 3 51 -19 127 -50 173 -36 53 -82 66 -248 72 -80 2 -142 1 -138 -3 4 -4 70
-11 146 -15 93 -6 150 -14 170 -24 44 -23 72 -89 90 -216 12 -91 18 -110 32
-110 37 0 80 -22 80 -41 0 -10 8 -34 17 -54 9 -19 14 -38 10 -41 -3 -3 -28 0
-56 7 -37 9 -56 10 -74 2 -39 -18 -218 -16 -263 3 -21 9 -71 48 -109 88 -39
39 -88 80 -108 89 -21 10 -79 23 -129 28 -182 19 -192 25 -189 123 2 60 -1 76
-12 76 -20 0 -41 -28 -61 -82 -10 -27 -23 -48 -30 -48 -6 0 -20 25 -31 55 -12
38 -23 54 -32 50 -7 -3 -19 -8 -27 -11 -20 -8 -27 33 -9 51 16 17 88 20 98 5
4 -6 -6 -10 -21 -10 -20 0 -25 -3 -17 -11 15 -15 73 -2 73 16 0 7 8 16 18 18
9 3 -2 5 -26 6 -63 2 -42 21 24 21 41 0 54 4 54 15 0 8 8 15 18 15 94 1 259
23 304 41 46 18 60 19 107 10 87 -17 112 -14 171 24 30 19 56 35 58 35 2 0 28
-20 59 -45z m-3977 -85 c0 -28 -13 -40 -24 -22 -7 12 5 52 15 52 5 0 9 -13 9
-30z m57 -92 c-2 -13 -4 -5 -4 17 -1 22 1 32 4 23 2 -10 2 -28 0 -40z m2628
21 c34 -20 64 -51 91 -93 l18 -29 -22 12 c-12 6 -33 29 -47 49 -15 22 -39 43
-59 50 -19 7 -40 20 -47 29 -12 14 -11 15 11 8 14 -4 39 -15 55 -26z m326 -78
c-19 -71 -36 -71 -20 -1 9 40 27 75 35 68 1 -2 -5 -32 -15 -67z m-334 35 c15
-13 37 -39 47 -57 l19 -34 -29 26 c-16 14 -44 36 -61 48 -18 12 -33 27 -33 32
0 17 28 9 57 -15z m138 -16 c8 -13 71 -29 94 -23 10 2 24 16 30 29 6 13 15 24
21 24 11 0 13 -37 4 -104 -6 -39 -10 -46 -29 -46 -41 0 -117 62 -151 123 -15
27 -15 28 5 18 11 -6 23 -15 26 -21z m235 -20 c0 -5 -4 -10 -10 -10 -5 0 -10
5 -10 10 0 6 5 10 10 10 6 0 10 -4 10 -10z m-410 -15 c7 -9 10 -18 7 -22 -8
-7 -37 15 -37 28 0 14 16 11 30 -6z m578 -20 c-6 -14 -15 -25 -19 -25 -5 0 -3
11 3 25 6 14 15 25 19 25 5 0 3 -11 -3 -25z m-153 -45 c0 -26 -5 -36 -19 -38
-27 -6 -37 10 -30 47 5 25 11 31 28 29 17 -2 21 -10 21 -38z m-1758 -6 c-4
-20 -15 -46 -25 -58 -43 -46 -53 -249 -27 -531 8 -88 15 -201 15 -250 0 -50 7
-116 15 -147 10 -40 16 -134 19 -325 5 -285 27 -730 51 -1058 15 -193 24 -287
44 -445 10 -79 8 -90 -15 -90 -8 0 -19 -11 -24 -25 -5 -14 -14 -25 -20 -25 -5
0 -10 1 -10 3 0 51 -35 250 -49 281 -20 43 -37 221 -20 210 5 -3 9 -22 10 -42
0 -20 4 -55 8 -77 8 -38 9 -37 10 23 1 69 -18 253 -28 264 -3 4 -13 3 -21 -2
-13 -8 -13 -13 -1 -32 l13 -23 -22 21 c-15 15 -24 37 -27 70 -4 46 -3 48 12
29 14 -18 15 1 13 230 -3 262 7 398 24 340 5 -16 6 -53 3 -82 -8 -64 3 -129
18 -114 7 7 10 70 8 178 -2 138 -6 176 -21 210 -20 45 -66 76 -134 88 -36 7
-38 9 -31 39 4 17 10 49 14 70 5 31 8 36 18 25 6 -8 17 -34 24 -59 l14 -45 3
40 c2 22 11 48 19 57 13 15 15 35 10 120 -8 125 -17 178 -28 178 -5 0 -9 -12
-10 -27 -2 -83 -79 202 -79 291 0 25 -11 52 -35 87 -39 58 -58 114 -54 168 3
37 -40 159 -68 192 -7 8 -13 30 -13 47 0 17 -7 47 -16 66 -20 40 -13 66 16 66
16 0 20 -6 20 -33 0 -18 18 -71 41 -117 37 -76 42 -83 54 -67 12 17 14 17 29
-5 9 -12 16 -39 16 -59 0 -21 8 -47 20 -62 14 -18 16 -27 8 -29 -14 -5 -16
-58 -4 -131 12 -74 26 -45 20 41 l-5 77 20 -24 c27 -30 27 -79 0 -151 -11 -30
-21 -62 -21 -70 0 -26 32 -224 37 -228 3 -3 12 12 21 33 12 30 14 56 8 126 -3
49 -10 89 -15 89 -5 0 -10 -10 -10 -22 -2 -23 -2 -23 -6 0 -3 14 3 32 13 43
11 12 18 41 21 86 3 58 -1 83 -30 166 -22 65 -29 97 -21 97 17 0 41 -25 61
-63 17 -32 17 -30 30 138 6 94 14 178 17 188 2 9 0 17 -4 17 -10 0 -13 -16
-31 -153 -6 -48 -8 -95 -4 -105 5 -13 4 -14 -6 -5 -13 13 -14 139 -1 231 7 54
7 54 57 72 68 25 68 25 62 -16z m1313 7 c5 -11 10 -44 9 -73 -1 -52 -1 -53
-13 -23 -30 69 -27 152 4 96z m172 -15 c18 -18 42 -35 53 -37 23 -5 34 -39 13
-39 -15 0 -118 91 -118 103 0 16 21 5 52 -27z m500 -22 c21 -8 70 -16 110 -20
106 -8 180 -24 208 -44 14 -10 48 -58 75 -107 27 -48 77 -127 111 -176 43 -60
66 -103 73 -138 6 -27 11 -136 11 -242 0 -165 -3 -203 -21 -267 -18 -65 -20
-90 -14 -188 6 -95 4 -116 -9 -137 -22 -33 -30 -32 -55 11 -26 43 -39 39 -17
-4 36 -70 -32 -87 -104 -27 -23 19 -52 35 -65 35 -44 0 -74 19 -103 65 -37 59
-112 115 -209 155 -199 82 -234 106 -285 202 -18 33 -58 89 -90 124 -32 35
-60 74 -63 86 -2 13 -9 49 -14 80 -6 32 -39 122 -75 200 -35 79 -66 152 -70
163 -13 46 -23 153 -17 193 l6 44 27 -21 c15 -12 48 -49 74 -83 51 -67 56 -96
35 -189 -6 -24 -11 -61 -11 -81 0 -31 4 -38 19 -38 29 0 51 38 51 87 0 51 15
93 33 93 7 0 31 -19 52 -41 52 -54 90 -69 169 -69 36 0 87 -5 115 -11 70 -15
91 -2 91 54 -1 36 -6 46 -37 70 -57 42 -89 35 -95 -23 -3 -35 -3 -35 -55 -38
-29 -2 -53 -1 -53 2 0 3 18 33 39 66 22 33 52 101 68 150 22 70 31 89 43 84 8
-4 32 -13 52 -20z m-2125 -51 c-4 -38 -7 -94 -7 -126 0 -36 -4 -56 -10 -52
-18 11 -6 245 13 245 6 0 8 -25 4 -67z m-46 -28 l-8 -70 -2 80 c-1 49 3 75 8
70 6 -6 7 -38 2 -80z m1663 42 c16 -20 27 -39 24 -42 -3 -3 -22 16 -43 41 -21
26 -33 45 -25 42 8 -2 27 -21 44 -41z m-1695 -39 c1 -16 -3 -28 -9 -28 -6 0
-10 24 -9 53 1 41 3 47 9 27 4 -14 8 -37 9 -52z m1981 41 c0 -4 -11 -14 -25
-23 -14 -9 -23 -21 -20 -26 4 -6 1 -10 -4 -10 -10 0 -16 52 -7 61 7 7 56 5 56
-2z m-1016 -11 c-5 -7 -38 -60 -76 -117 -82 -127 -174 -310 -228 -455 -56
-152 -91 -305 -150 -651 -59 -346 -70 -392 -105 -425 -32 -30 -32 -23 5 60 21
49 30 84 30 123 0 30 9 97 19 148 11 52 27 150 36 219 27 209 66 345 197 680
43 113 90 216 102 230 13 14 43 54 66 90 44 65 85 110 102 110 5 0 6 -6 2 -12z
m1063 -50 c-3 -7 -5 -2 -5 12 0 14 2 19 5 13 2 -7 2 -19 0 -25z m-2064 -19
c-8 -29 -13 -23 -13 14 0 22 3 28 9 18 5 -7 6 -22 4 -32z m1906 1 c9 0 11 -8
6 -27 -3 -16 -10 -32 -15 -36 -12 -13 -50 29 -50 54 0 17 4 20 23 15 12 -3 28
-6 36 -6z m96 -52 c-15 -53 -62 -92 -72 -61 -5 13 54 83 69 83 5 0 6 -10 3
-22z m-351 -193 c81 -173 89 -201 90 -315 1 -58 -3 -121 -7 -140 l-8 -35 26
33 c34 42 60 42 69 1 11 -57 6 -233 -9 -297 -14 -59 -49 -138 -77 -173 -9 -11
-39 -18 -103 -22 -125 -9 -233 -39 -347 -96 -54 -26 -98 -45 -98 -40 0 22 116
129 218 202 114 81 174 143 213 218 22 44 69 201 69 232 0 38 -16 4 -59 -131
-51 -155 -80 -195 -214 -289 -45 -32 -116 -89 -157 -129 -67 -62 -132 -111
-117 -87 3 4 22 44 42 88 37 81 51 130 80 284 27 141 67 202 171 261 69 40
105 84 133 166 27 76 24 134 -9 169 -12 13 -48 37 -80 54 -77 41 -100 71 -100
129 l0 44 63 -6 c57 -7 64 -5 83 16 12 13 27 34 34 47 12 24 14 23 35 -40 12
-35 39 -100 59 -144z m395 149 c-17 -21 -21 -11 -8 22 10 23 13 25 16 11 3
-10 -1 -25 -8 -33z m-1585 -56 c-40 -37 -67 -75 -94 -133 -52 -108 -57 -137
-31 -174 36 -51 22 -125 -38 -192 l-39 -44 -17 79 c-16 73 -16 81 -1 113 9 18
16 48 16 66 0 41 57 178 100 245 36 54 76 78 152 91 4 0 -18 -22 -48 -51z
m1746 27 c7 -8 18 -15 24 -15 16 0 14 -82 -2 -88 -16 -5 -44 17 -36 29 2 5 -2
22 -11 38 -8 17 -15 35 -15 41 0 15 26 12 40 -5z m-4070 -345 c11 -11 20 -25
20 -31 0 -7 7 -8 18 -4 33 12 112 18 112 8 0 -25 -68 -53 -80 -33 -12 19 -160
-39 -160 -62 0 -10 -8 -18 -17 -18 -25 -1 -57 -28 -82 -70 -26 -43 -28 -136
-5 -185 23 -50 1 -92 -73 -143 -32 -22 -64 -46 -70 -53 -13 -17 -70 -175 -75
-209 l-3 -24 -18 27 c-30 46 -40 130 -28 233 16 138 14 194 -11 253 -32 79
-23 94 87 140 170 72 260 116 273 133 10 14 74 55 90 58 1 0 11 -9 22 -20z
m1861 -127 c8 -102 26 -180 63 -265 26 -60 2 -44 -34 23 -38 71 -59 181 -57
292 2 111 19 81 28 -50z m-98 77 c19 -22 26 -45 32 -102 7 -85 26 -150 66
-230 35 -70 35 -73 4 -52 -21 14 -25 14 -25 1 0 -8 10 -26 21 -41 40 -50 4
-41 -86 22 -69 48 -77 75 -71 237 6 145 13 195 26 195 5 0 19 -13 33 -30z
m196 -484 c13 -50 7 -57 -25 -25 -22 23 -24 28 -13 53 15 31 23 25 38 -28z
m15 -350 c12 -39 24 -60 37 -63 21 -6 23 -29 11 -98 -9 -47 -7 -51 -63 113
-32 96 -35 113 -21 110 11 -2 24 -24 36 -62z m76 -6 c0 -11 -2 -20 -4 -20 -2
0 -6 9 -9 20 -3 11 -1 20 4 20 5 0 9 -9 9 -20z m-591 -211 c98 -51 231 -143
231 -160 0 -18 -28 -9 -66 22 -32 25 -44 29 -74 24 -37 -6 -43 -3 -144 70 -28
21 -60 35 -77 35 -16 0 -29 3 -29 7 0 7 50 52 59 53 2 0 47 -23 100 -51z
m1001 -14 c-13 -14 -28 -25 -34 -25 -5 0 3 13 19 30 16 16 31 28 33 25 3 -3
-5 -16 -18 -30z m-113 -24 c-19 -21 -51 -64 -71 -95 -20 -31 -38 -56 -41 -56
-14 0 52 110 88 148 52 53 72 56 24 3z m53 4 c-19 -19 -39 -35 -44 -35 -12 1
59 70 71 70 4 0 -8 -16 -27 -35z m-60 -129 c-28 -47 -53 -86 -55 -86 -2 0 -1
10 3 23 5 20 4 21 -12 8 -24 -20 -41 -57 -55 -123 -15 -69 -27 -80 -35 -34 -6
29 1 47 45 123 80 135 107 171 132 175 12 2 24 3 26 2 1 -2 -20 -41 -49 -88z
m-347 16 c-22 -5 -27 6 -12 24 12 15 14 14 20 -3 4 -12 1 -19 -8 -21z m-350
-47 c25 -14 32 -14 73 0 24 8 66 15 92 15 46 -1 48 -2 86 -58 31 -44 39 -64
37 -93 -2 -27 4 -41 23 -60 17 -16 26 -35 26 -56 l0 -31 -29 26 c-16 15 -66
42 -110 61 -64 26 -82 38 -86 57 -3 13 -7 34 -10 47 -3 15 -24 32 -68 55 -35
18 -75 45 -88 59 l-24 27 25 -17 c14 -9 37 -24 53 -32z m316 -12 c14 -50 14
-66 -1 -61 -14 5 -29 98 -16 98 4 0 12 -17 17 -37z m241 -53 c0 -5 -4 -10 -10
-10 -5 0 -10 5 -10 10 0 6 5 10 10 10 6 0 10 -4 10 -10z m-222 -1332 c20 -20
14 -59 -14 -100 -15 -21 -29 -38 -31 -38 -2 0 -15 7 -29 16 -20 14 -39 16
-103 10 -53 -4 -88 -2 -107 6 l-29 12 45 5 c32 5 64 20 110 53 52 38 73 47
106 48 22 0 45 -5 52 -12z m79 -232 c33 -51 59 -129 78 -230 15 -82 40 -434
32 -443 -3 -2 -20 37 -37 87 -22 59 -46 105 -70 133 -34 38 -38 50 -48 132 -7
50 -23 135 -36 190 -37 158 -41 193 -19 217 18 20 18 20 46 -14 16 -18 40 -51
54 -72z m-38 -993 c6 -13 11 -32 11 -42 0 -10 27 -49 60 -86 65 -74 65 -85 0
-85 -84 0 -130 66 -130 187 l0 73 24 -11 c13 -6 29 -22 35 -36z m245 -578 c19
-15 19 -17 2 -108 -26 -140 -36 -140 -36 1 0 67 3 122 8 122 4 0 16 -7 26 -15z" />
<path d="M5176 9551 c-3 -4 6 -6 19 -3 14 2 25 6 25 8 0 8 -39 4 -44 -5z" fill="green"/>
<path d="M5110 9530 c0 -5 7 -7 15 -4 8 4 15 8 15 10 0 2 -7 4 -15 4 -8 0 -15
-4 -15 -10z" fill="pink"/>
<path d="M2466 9599 c2 -4 18 -18 34 -29 l30 -22 -11 25 c-6 14 -22 27 -35 30
-13 2 -21 0 -18 -4z" fill="pink"/>
<path d="M1755 9580 c-4 -6 22 -10 72 -9 53 0 72 3 58 9 -28 12 -123 12 -130
0z" fill="pink"/>
<path d="M1941 9556 c2 -2 15 -9 29 -16 23 -12 24 -12 11 3 -7 10 -20 17 -29
17 -8 0 -13 -2 -11 -4z" fill="pink"/>
<path d="M1720 9530 c-11 -7 -4 -10 26 -10 48 0 98 -16 137 -43 16 -10 30 -17
33 -15 9 10 -44 46 -90 62 -56 18 -84 20 -106 6z" fill="pink"/>
<path d="M1871 9526 c8 -8 139 -65 139 -61 0 10 -106 65 -124 65 -11 0 -17 -2
-15 -4z" fill="pink"/>
<path d="M1705 9440 c3 -5 16 -10 28 -10 18 0 19 2 7 10 -20 13 -43 13 -35 0z"/>
<path d="M2070 9412 c0 -10 26 -34 50 -47 8 -4 2 6 -14 23 -32 34 -36 37 -36
24z" fill="pink"/>
<path d="M1792 9375 c15 -39 28 -54 28 -33 0 9 -9 26 -20 39 l-20 24 12 -30z"/>
<path d="M1990 9380 c6 -12 32 -33 57 -48 76 -44 200 -140 232 -179 17 -20 33
-34 36 -31 3 3 -30 38 -73 79 -88 84 -270 212 -252 179z" fill="deeppink"/>
<path d="M3330 9583 c-22 -28 -33 -34 -39 -25 -5 9 -11 6 -19 -12 -7 -16 -8
-27 -1 -31 5 -4 2 -18 -8 -35 -12 -21 -19 -26 -25 -17 -13 19 -56 -40 -72 -98
-19 -66 -31 -271 -16 -280 5 -3 10 2 10 13 0 11 13 73 30 138 32 127 89 257
146 336 42 57 39 64 -6 11z" fill="pink"/>
<path d="M3490 9490 c0 -5 5 -10 10 -10 6 0 10 5 10 10 0 6 -4 10 -10 10 -5 0
-10 -4 -10 -10z" fill="pink"/>
<path d="M3439 9445 c-7 -53 -6 -65 2 -70 5 -4 9 -22 9 -41 0 -27 4 -34 20
-34 11 0 20 6 20 14 0 7 7 19 15 26 8 7 15 17 15 23 0 7 -4 7 -12 -1 -9 -9
-14 -6 -23 11 -6 12 -17 21 -24 19 -8 -1 -10 4 -7 15 3 10 1 25 -4 33 -5 8
-10 11 -11 5z" fill="pink"/>
<path d="M5737 9433 c-33 -2 -55 -8 -52 -14 9 -13 75 -10 110 6 17 7 23 13 15
12 -8 0 -41 -2 -73 -4z" fill="pink"/>
<path d="M5705 9379 c-22 -4 -59 -8 -82 -8 -24 -1 -43 -5 -43 -11 0 -5 8 -10
18 -10 28 0 194 29 200 35 8 7 -46 4 -93 -6z" fill="pink"/>
<path d="M5625 9329 l-110 -18 104 5 c57 3 110 8 118 11 14 5 19 24 6 22 -5
-1 -57 -10 -118 -20z" fill="pink"/>
<path d="M5533 9283 c-46 -2 -83 -7 -83 -11 0 -10 172 -2 190 9 12 7 11 8 -5
7 -11 -1 -57 -4 -102 -5z" fill="pink"/>
<path d="M3640 8981 c-15 -5 39 -10 130 -13 228 -8 332 -43 426 -143 28 -30
60 -55 70 -55 14 0 8 10 -26 40 -109 98 -199 144 -318 166 -82 14 -240 17
-282 5z" fill="pink"/>
<path d="M3440 8914 l-25 -15 25 7 c28 7 35 12 29 18 -2 2 -15 -2 -29 -10z" fill="pink"/>
<path d="M3575 8915 l-40 -14 40 7 c22 4 103 6 180 6 80 -1 127 2 110 6 -52
13 -247 10 -290 -5z" fill="pink"/>
<path d="M3433 8870 c-24 -10 -43 -21 -43 -24 0 -6 73 19 98 33 31 19 -10 12
-55 -9z" fill="pink"/>
<path d="M3512 8860 c-34 -10 -97 -37 -140 -59 -68 -37 -73 -38 -44 -13 33 29
40 46 22 57 -13 8 -90 -64 -84 -79 6 -15 -41 -77 -99 -130 -60 -56 -6 -21 112
72 204 159 327 188 570 131 91 -21 116 -18 57 6 -94 40 -286 47 -394 15z" fill="pink"/>
<path d="M4023 8853 c42 -16 87 -43 117 -70 28 -25 55 -43 61 -41 15 5 -100
94 -153 118 -24 11 -54 19 -68 19 -16 0 -1 -9 43 -26z" fill="pink"/>
<path d="M3750 8655 c-15 -8 -19 -14 -10 -14 18 -1 46 16 40 23 -3 2 -16 -2
-30 -9z" fill="pink"/>
<path d="M3744 8615 c-10 -8 -14 -15 -8 -15 5 0 19 7 30 15 10 8 14 15 8 15
-5 0 -19 -7 -30 -15z" fill="pink"/>
<path d="M3774 8598 c-5 -8 0 -9 14 -6 18 5 22 2 22 -18 0 -13 -4 -24 -10 -24
-5 0 -10 -4 -10 -8 0 -10 46 -10 56 0 3 4 1 21 -6 38 -13 31 -51 42 -66 18z" fill="pink"/>
<path d="M5757 9033 c-4 -3 -7 -11 -7 -17 0 -6 5 -5 12 2 6 6 9 14 7 17 -3 3
-9 2 -12 -2z" fill="pink"/>
<path d="M2078 8072 c-30 -32 -63 -73 -72 -92 -16 -34 -16 -34 1 -10 10 14 44
55 76 92 32 38 56 68 54 68 -2 0 -29 -26 -59 -58z" fill="deeppink"/>
<path d="M2826 8415 c-3 -8 -1 -15 3 -15 5 0 11 7 15 15 3 8 1 15 -3 15 -5 0
-11 -7 -15 -15z" fill="pink"/>
<path d="M2465 8011 c-3 -12 -35 -60 -71 -107 -35 -48 -64 -88 -64 -90 0 -12
15 4 70 78 59 78 86 126 76 135 -2 3 -7 -5 -11 -16z" fill="pink"/>
<path d="M2508 7978 c-26 -40 -69 -130 -65 -135 6 -6 41 52 66 110 22 51 22
60 -1 25z" fill="pink"/>
<path d="M2250 7735 c-8 -9 -8 -15 -2 -15 12 0 26 19 19 26 -2 2 -10 -2 -17
-11z" fill="pink"/>
<path d="M3520 7978 c0 -35 -26 -151 -61 -271 -17 -60 -29 -111 -27 -113 3 -2
24 56 47 129 39 120 66 277 47 277 -3 0 -6 -10 -6 -22z" fill="pink"/>
<path d="M3321 7780 l1 -55 11 43 c7 31 7 46 -1 54 -9 9 -12 -1 -11 -42z"/>
<path d="M2925 7703 c7 -31 22 -50 31 -41 6 7 -23 68 -32 68 -4 0 -3 -12 1
-27z" fill="pink"/>
<path d="M3271 7623 c1 -54 3 -70 9 -53 12 36 12 118 0 125 -6 4 -10 -22 -9
-72z" fill="pink"/>
<path d="M3231 7530 c-1 -14 -8 -47 -16 -74 -26 -84 -16 -85 20 -1 36 82 44
106 23 70 -12 -19 -12 -19 -19 5 l-7 25 -1 -25z" fill="pink"/>
<path d="M3011 7445 c-1 -22 -8 -68 -15 -103 -11 -52 -11 -61 0 -51 17 14 27
79 22 144 -4 46 -5 47 -7 10z" fill="pink"/>
<path d="M3156 7421 c-4 -33 -12 -63 -18 -67 -11 -7 -7 31 7 69 4 9 3 17 -2
17 -5 0 -14 -12 -20 -27 l-11 -28 -1 28 c-1 38 -21 24 -21 -14 0 -32 -27 -105
-35 -97 -3 3 -1 17 5 32 5 15 10 39 9 54 0 26 -24 -37 -44 -115 -6 -26 -5 -27
12 -12 10 9 41 28 69 44 61 32 87 73 82 129 -5 63 -24 55 -32 -13z" fill="pink"/>
<path d="M3345 7443 c-29 -43 -34 -67 -6 -32 22 29 44 69 37 69 -3 0 -17 -17
-31 -37z" fill="pink"/>
<path d="M3266 7339 c-11 -11 -15 -19 -9 -19 12 0 38 28 32 34 -2 2 -13 -5
-23 -15z" fill="pink"/>
<path d="M3110 7229 c0 -5 5 -7 10 -4 6 3 10 8 10 11 0 2 -4 4 -10 4 -5 0 -10
-5 -10 -11z" fill="pink"/>
<path d="M4785 7664 c-16 -14 -21 -21 -10 -15 30 14 61 40 50 41 -5 0 -23 -12
-40 -26z" fill="pink"/>
<path d="M4827 7659 c-22 -11 -37 -23 -34 -25 5 -6 87 33 87 41 0 9 -14 4 -53
-16z" fill="pink"/>
<path d="M4800 7600 c-90 -60 -80 -68 11 -9 71 46 88 59 74 59 -6 0 -44 -23
-85 -50z" fill="pink"/>
<path d="M4830 7531 c-19 -10 -51 -22 -70 -25 l-35 -7 28 16 c41 23 28 28 -21
8 -52 -20 -54 -33 -3 -33 40 0 141 37 141 51 0 11 2 12 -40 -10z" fill="pink"/>
<path d="M2950 6683 c0 -48 8 -73 22 -73 14 0 4 88 -11 103 -8 8 -11 0 -11
-30z" fill="pink"/>
<path d="M5261 6783 c0 -5 33 -35 72 -67 67 -56 69 -52 7 17 -26 30 -81 64
-79 50z" fill="pink"/>
<path d="M5204 6758 c-5 -7 8 -25 33 -47 23 -20 72 -63 110 -96 88 -77 178
-180 224 -256 48 -79 75 -169 92 -307 8 -63 20 -119 27 -125 10 -10 11 -8 6 8
-4 11 -13 72 -21 137 -20 172 -85 329 -189 451 -62 74 -273 250 -282 235z" fill="deeppink"/>
<path d="M5444 6610 c58 -71 149 -164 131 -135 -34 55 -76 104 -118 137 l-42
33 29 -35z" fill="pink"/>
<path d="M4896 6470 c10 -37 29 -71 62 -110 26 -31 31 -33 44 -19 11 11 13 20
6 32 -11 21 -32 22 -24 1 12 -31 -17 0 -56 60 -22 33 -36 50 -32 36z" fill="pink"/>
<path d="M5410 6475 c0 -8 64 -64 74 -65 5 0 -1 12 -15 26 -24 26 -59 49 -59
39z" fill="lightpink"/>
<path d="M5513 6362 c9 -10 28 -42 42 -72 17 -37 24 -45 20 -25 -8 38 -52 115
-67 115 -6 0 -4 -8 5 -18z" fill="pink"/>
<path d="M1043 6530 c-30 -12 -29 -18 2 -12 14 2 25 8 25 13 0 5 -1 9 -2 8 -2
0 -13 -4 -25 -9z" fill="pink"/>
<path d="M1595 8984 c-33 -7 -116 -19 -185 -25 -75 -8 -133 -18 -145 -27 -17
-13 -18 -14 -2 -8 54 18 98 18 117 1 11 -10 20 -13 20 -7 0 21 36 32 68 21 25
-8 44 -5 108 17 88 29 119 44 94 43 -8 -1 -42 -7 -75 -15z" fill="pink"/>
<path d="M1518 8193 c12 -2 30 -2 40 0 9 3 -1 5 -23 4 -22 0 -30 -2 -17 -4z"/>
<path d="M1510 7810 c-10 -6 -5 -8 20 -7 19 1 59 -2 88 -7 33 -5 52 -4 52 2 0
21 -130 31 -160 12z" fill="pink"/>
<path d="M1423 7793 c9 -2 23 -2 30 0 6 3 -1 5 -18 5 -16 0 -22 -2 -12 -5z" fill="pink"/>
<path d="M1255 7280 c16 -16 33 -30 39 -30 5 0 -3 14 -19 30 -16 17 -33 30
-39 30 -5 0 3 -13 19 -30z" fill="pink"/>
<path d="M762 6900 c6 -18 118 -80 143 -79 15 1 14 3 -7 9 -14 4 -46 21 -70
37 -65 45 -71 48 -66 33z" fill="pink"/>
<path d="M916 6770 c14 -14 74 -24 74 -12 0 10 -33 22 -64 22 -13 0 -17 -3
-10 -10z" fill="pink"/>
<path d="M1028 6763 c7 -3 16 -2 19 1 4 3 -2 6 -13 5 -11 0 -14 -3 -6 -6z" fill="pink"/>
<path d="M744 6734 c-15 -22 -15 -27 -3 -34 17 -11 24 -4 33 33 8 34 -8 35
-30 1z" fill="pink"/>
<path d="M797 6683 c-3 -10 -11 -43 -17 -73 -16 -69 -34 -106 -61 -121 -29
-15 -33 -7 -11 22 39 50 66 119 41 103 -8 -5 -8 -1 0 14 13 25 14 32 1 32 -5
0 -25 -29 -45 -64 -20 -35 -41 -69 -49 -75 -21 -18 -141 -30 -207 -21 -81 12
-102 31 -93 86 6 41 5 42 -30 54 -45 15 -58 6 -82 -56 -17 -44 -16 -46 3 -72
34 -47 105 -63 305 -69 l177 -6 18 31 c23 40 39 42 18 3 -10 -20 -11 -32 -5
-36 6 -4 15 7 21 24 9 24 22 34 65 51 30 11 59 20 63 20 5 0 15 8 22 17 12 15
12 16 -6 9 -58 -23 -107 -38 -111 -33 -3 3 0 31 7 64 12 59 7 113 -11 113 -5
0 -11 -8 -13 -17z m-459 -81 c2 -6 -6 -19 -17 -29 -12 -9 -21 -25 -21 -35 0
-11 -8 -18 -20 -18 -29 0 -26 45 5 76 26 25 45 28 53 6z m207 -132 c-3 -5 -26
-10 -51 -10 -24 0 -44 5 -44 10 0 6 23 10 51 10 31 0 48 -4 44 -10z" fill="yellow"/>
<path d="M1671 6589 c-50 -10 -109 -42 -169 -94 -60 -52 -45 -56 19 -5 63 50
111 75 161 84 21 4 40 11 43 16 7 11 7 11 -54 -1z" fill="pink"/>
<path d="M878 6583 c6 -2 18 -2 25 0 6 3 1 5 -13 5 -14 0 -19 -2 -12 -5z" fill="pink"/>
<path d="M831 5963 c-22 -48 -24 -125 -6 -226 10 -53 20 -97 23 -97 2 0 1 46
-3 103 -10 122 -8 183 6 210 7 12 7 23 2 28 -6 6 -15 -1 -22 -18z" fill="pink"/>
<path d="M827 5527 c-5 -61 -3 -77 10 -64 11 12 16 114 5 120 -5 4 -12 -19
-15 -56z" fill="lightpink"/>
<path d="M3561 2705 c-43 -39 -76 -106 -86 -177 -10 -65 10 -63 24 2 13 60 31
98 78 163 19 26 32 47 29 47 -3 0 -23 -16 -45 -35z" fill="darkgreen"/>
<path d="M3610 2498 c1 -49 2 -52 16 -33 17 23 15 76 -3 83 -9 3 -13 -11 -13
-50z" fill="darkgreen"/>
<path d="M3230 2230 c0 -5 5 -10 11 -10 5 0 7 5 4 10 -3 6 -8 10 -11 10 -2 0
-4 -4 -4 -10z" fill="darkgreen"/>
<path d="M3446 1488 c-3 -40 -2 -118 4 -173 5 -55 10 -104 10 -110 0 -5 5 -3
10 5 11 17 13 253 4 313 -10 58 -21 44 -28 -35z" fill="darkgreen"/>
<path d="M3280 1143 c0 -87 -7 -263 -15 -392 -18 -297 -15 -311 20 -76 29 192
32 625 4 625 -5 0 -9 -70 -9 -157z" fill="darkgreen"/>
<path d="M3346 1158 c-8 -69 -7 -158 3 -183 12 -30 21 31 21 141 0 102 -13
126 -24 42z" fill="darkgreen"/>
<path d="M3432 658 c0 -79 -8 -210 -16 -293 -20 -195 -25 -347 -10 -352 15 -5
32 135 44 372 14 280 13 415 -4 415 -10 0 -13 -29 -14 -142z" fill="darkgreen"/>
</g>
</svg>
